<?xml version="1.0" standalone="no"?>
<svg xmlns:xlink="http://www.w3.org/1999/xlink" id="wave" style="transform:rotate(0deg); transition: 0.3s" viewBox="0 0 1440 300" version="1.1" xmlns="http://www.w3.org/2000/svg"><defs><linearGradient id="sw-gradient-0" x1="0" x2="0" y1="1" y2="0"><stop stop-color="rgba(0, 0, 0, 1)" offset="0%"/><stop stop-color="rgba(0, 0, 0, 1)" offset="100%"/></linearGradient></defs><path style="transform:translate(0, 0px); opacity:1" fill="url(#sw-gradient-0)" d="M0,30L26.7,35C53.3,40,107,50,160,45C213.3,40,267,20,320,25C373.3,30,427,60,480,90C533.3,120,587,150,640,175C693.3,200,747,220,800,205C853.3,190,907,140,960,145C1013.3,150,1067,210,1120,235C1173.3,260,1227,250,1280,240C1333.3,230,1387,220,1440,200C1493.3,180,1547,150,1600,145C1653.3,140,1707,160,1760,165C1813.3,170,1867,160,1920,175C1973.3,190,2027,230,2080,240C2133.3,250,2187,230,2240,225C2293.3,220,2347,230,2400,215C2453.3,200,2507,160,2560,165C2613.3,170,2667,220,2720,240C2773.3,260,2827,250,2880,245C2933.3,240,2987,240,3040,235C3093.3,230,3147,220,3200,215C3253.3,210,3307,210,3360,220C3413.3,230,3467,250,3520,245C3573.3,240,3627,210,3680,190C3733.3,170,3787,160,3813,155L3840,150L3840,300L3813.3,300C3786.7,300,3733,300,3680,300C3626.7,300,3573,300,3520,300C3466.7,300,3413,300,3360,300C3306.7,300,3253,300,3200,300C3146.7,300,3093,300,3040,300C2986.7,300,2933,300,2880,300C2826.7,300,2773,300,2720,300C2666.7,300,2613,300,2560,300C2506.7,300,2453,300,2400,300C2346.7,300,2293,300,2240,300C2186.7,300,2133,300,2080,300C2026.7,300,1973,300,1920,300C1866.7,300,1813,300,1760,300C1706.7,300,1653,300,1600,300C1546.7,300,1493,300,1440,300C1386.7,300,1333,300,1280,300C1226.7,300,1173,300,1120,300C1066.7,300,1013,300,960,300C906.7,300,853,300,800,300C746.7,300,693,300,640,300C586.7,300,533,300,480,300C426.7,300,373,300,320,300C266.7,300,213,300,160,300C106.7,300,53,300,27,300L0,300Z"/></svg>