<?xml version="1.0" standalone="no"?>
<svg xmlns:xlink="http://www.w3.org/1999/xlink" id="wave" style="transform:rotate(0deg); transition: 0.3s" viewBox="0 0 1440 410" version="1.1" xmlns="http://www.w3.org/2000/svg"><defs><linearGradient id="sw-gradient-0" x1="0" x2="0" y1="1" y2="0"><stop stop-color="rgba(0, 0, 0, 1)" offset="0%"/><stop stop-color="rgba(0, 0, 0, 1)" offset="100%"/></linearGradient></defs><path style="transform:translate(0, 0px); opacity:1" fill="url(#sw-gradient-0)" d="M0,369L60,348.5C120,328,240,287,360,259.7C480,232,600,219,720,218.7C840,219,960,232,1080,225.5C1200,219,1320,191,1440,170.8C1560,150,1680,137,1800,157.2C1920,178,2040,232,2160,246C2280,260,2400,232,2520,225.5C2640,219,2760,232,2880,198.2C3000,164,3120,82,3240,102.5C3360,123,3480,246,3600,246C3720,246,3840,123,3960,68.3C4080,14,4200,27,4320,47.8C4440,68,4560,96,4680,129.8C4800,164,4920,205,5040,211.8C5160,219,5280,191,5400,150.3C5520,109,5640,55,5760,88.8C5880,123,6000,246,6120,307.5C6240,369,6360,369,6480,328C6600,287,6720,205,6840,170.8C6960,137,7080,150,7200,143.5C7320,137,7440,109,7560,123C7680,137,7800,191,7920,177.7C8040,164,8160,82,8280,41C8400,0,8520,0,8580,0L8640,0L8640,410L8580,410C8520,410,8400,410,8280,410C8160,410,8040,410,7920,410C7800,410,7680,410,7560,410C7440,410,7320,410,7200,410C7080,410,6960,410,6840,410C6720,410,6600,410,6480,410C6360,410,6240,410,6120,410C6000,410,5880,410,5760,410C5640,410,5520,410,5400,410C5280,410,5160,410,5040,410C4920,410,4800,410,4680,410C4560,410,4440,410,4320,410C4200,410,4080,410,3960,410C3840,410,3720,410,3600,410C3480,410,3360,410,3240,410C3120,410,3000,410,2880,410C2760,410,2640,410,2520,410C2400,410,2280,410,2160,410C2040,410,1920,410,1800,410C1680,410,1560,410,1440,410C1320,410,1200,410,1080,410C960,410,840,410,720,410C600,410,480,410,360,410C240,410,120,410,60,410L0,410Z"/></svg>